PathFileType	4	(X/Y/Z)	Patient4_TMGait_0pt8_01_right_06.trc.trc
DataRate	CameraRate	NumFrames	NumMarkers	Units	OrigDataRate	OrigDataStartFrame	OrigNumFrames
88.050314465409	88.050314465409	6	33	mm	88.050314465409	1	       141
Frame#	Time	Sacral			L.Shoulder			Chest			R.Shoulder			Neck			R.ASIS			L.ASIS			R.Thigh.Superior			R.Thigh.Lateral			R.Thigh.Inferior			R.Patella			L.Thigh.Superior			L.Thigh.Lateral			L.Thigh.Inferior			L.Patella			L.Shank.Superior			L.Shank.Lateral			L.Shank.Inferior			R.Shank.Superior			R.Shank.Lateral			R.Shank.Inferior			R.Heel			R.Midfoot.Superior			R.Midfoot.Lateral			R.Toe			L.Heel			L.Midfoot.Lateral			L.Midfoot.Superior			L.Toe			L.Elbow			L.Wrist			R.Elbow			R.Wrist			
		X1	Y1	Z1	X2	Y2	Z2	X3	Y3	Z3	X4	Y4	Z4	X5	Y5	Z5	X6	Y6	Z6	X7	Y7	Z7	X8	Y8	Z8	X9	Y9	Z9	X10	Y10	Z10	X11	Y11	Z11	X12	Y12	Z12	X13	Y13	Z13	X14	Y14	Z14	X15	Y15	Z15	X16	Y16	Z16	X17	Y17	Z17	X18	Y18	Z18	X19	Y19	Z19	X20	Y20	Z20	X21	Y21	Z21	X22	Y22	Z22	X23	Y23	Z23	X24	Y24	Z24	X25	Y25	Z25	X26	Y26	Z26	X27	Y27	Z27	X28	Y28	Z28	X29	Y29	Z29	X30	Y30	Z30	X31	Y31	Z31	X32	Y32	Z32	X33	Y33	Z33	

1	6.450000000000	834.239166190370	1013.309146639964	460.508423972624	1021.741343796492	1436.876099067307	279.154426573151	1117.444681495363	1371.958729047633	445.979173981646	1025.977053874921	1446.873764322745	615.905864970421	1000.388477540997	1500.423625554624	434.907457369171	1057.410329182007	947.585540894220	581.819588573984	1052.817454480958	966.481366636486	309.358949718095	1140.918288227603	777.541768929904	554.409410242785	1100.126068086512	656.592137692370	628.223537055147	1192.379711136908	617.111778383817	552.723337446039	1208.307009533608	501.160171204150	575.120827304769	1096.870146598176	754.125843587780	336.870265711460	1004.765769357235	640.435182393419	277.748703549203	1086.601564445801	560.939562905251	342.175678611845	1085.052206091144	493.066996347032	352.275931529045	1061.454850104620	422.207069081286	343.768329942090	974.916163124154	304.758777067639	296.321162537458	1031.745047333762	195.979650132267	366.955082422100	1125.750257830702	430.133826826657	579.344801935881	999.007776451914	404.250716356942	637.637862525023	973.446705553431	298.154654633770	587.701595145469	766.433594263664	256.312713365294	555.755731236857	929.406357420400	184.172153179571	598.615359993987	819.022040021746	192.203077998577	630.059961112569	983.876145187337	67.287553270861	626.895554540628	908.427268356976	38.402079253241	414.109848123324	978.859906418982	36.027747827724	330.221904454602	1063.183643739756	97.041210029580	354.437351952164	1190.142235680088	45.705426315835	320.269693847777	1011.879171838426	1084.559879172365	157.055118336022	1108.136800101712	841.611470647981	170.191837888714	993.251939700782	1098.674705980383	729.697435593543	1189.021021952097	929.027691683889	699.103661427801	
2	6.461357142857	832.656003241665	1012.939864659525	459.224252841999	1022.555001142654	1437.542835541850	279.828708097558	1116.484199696887	1371.844445233744	447.296724686964	1023.616711645163	1446.126687659898	616.653490739699	999.891500562583	1500.533155004892	435.733708134045	1055.550993881344	948.770019554620	582.230364963701	1052.140680544956	966.727677268737	309.447142708916	1141.752036580668	781.776642229938	554.526952924849	1103.808636515602	660.253295879294	628.862715085811	1196.467277359845	622.488700110850	553.024763810927	1215.459826928688	507.729724813932	575.737853420229	1093.798750596405	753.146952549447	337.881455633652	1000.742353261325	640.328050639455	277.514867825208	1080.861133682195	559.949804870997	342.604480982173	1078.250083940148	492.180179205584	352.800548230173	1054.410038680260	421.537008041374	344.070851354379	967.332177950647	304.670224825307	296.320930319251	1023.094157662989	195.615476773868	367.232230471214	1136.124156600557	433.994136376285	580.572278423205	1011.686794970456	402.089058746823	639.703122458719	991.082355635234	294.925739825942	589.989278056337	786.890853201237	243.490140683772	559.313407775784	952.811733776186	179.312861159629	602.109516974906	842.437832423055	182.205625230523	633.648125619645	1012.188696972500	64.764955115172	629.880680622182	898.724090011829	38.318504130220	414.126116946459	969.220394056770	35.975145525843	330.243372147109	1053.548117767965	96.998816931726	354.554251397459	1180.506259249024	45.758509694877	320.316258356538	1022.460557343453	1087.207451895844	153.946043601335	1130.635477970543	850.269936792689	168.155405537644	984.787055106050	1097.464373530653	728.540142197026	1162.319252716947	912.010345434673	705.080767972900	
3	6.472714285714	831.086127844291	1012.567968665866	457.969163172043	1023.364990493141	1438.191382854494	280.527237030719	1115.547265977041	1371.705723338123	448.617117838642	1021.303808833269	1445.357227671572	617.417673186228	999.411652907099	1500.618453699047	436.582817879016	1053.691929846824	949.873721758641	582.623777022219	1051.459923701460	966.942251043199	309.536666947458	1142.521844942121	785.882311959174	554.662292095988	1107.337383037486	663.817331081068	629.502283229684	1200.358968379293	627.686102337291	553.337958266449	1222.344683012846	514.160040671812	576.402789183636	1090.765518632353	752.171939871312	338.884469349657	996.793737110857	640.210945401076	277.286589659327	1075.207034682419	558.959444098630	343.032282623313	1071.553397757391	491.296247073473	353.315812623818	1047.476869399907	420.862362483159	344.366526927882	959.858531946728	304.573925590388	296.316638180388	1014.553459030370	195.246563675541	367.506161569373	1146.258718723726	437.750234330328	581.837022300569	1024.195393768553	399.814247448893	641.790497770535	1008.607384053412	291.630200074217	592.307188237580	807.340076830364	230.610864245172	562.851268685396	976.144930972736	174.351122475040	605.585138611170	865.807177251271	172.124247951245	637.210456180137	1040.422088578327	62.187114713850	632.876447517271	889.148512919840	38.231905426200	414.140413556700	959.704478776900	35.922018601640	330.263382157765	1044.033358239116	96.956493126592	354.673688238221	1170.994276783106	45.813068855442	320.363342062124	1032.817131887505	1089.872511771522	150.904094557119	1152.774023219331	859.000753563047	166.225705468797	976.479378757594	1096.243369294040	727.372568935448	1135.735333611124	895.596645121142	710.976501288378	
4	6.484071428571	829.551223315479	1012.184998708245	456.763197612215	1024.184518302549	1438.798734732611	281.293840780580	1114.663310024532	1371.507706138047	449.965696785756	1019.082894261214	1444.532167122025	618.231712608289	998.972156966547	1500.647131446122	437.494193618906	1051.833578150785	950.812263829489	582.999708041921	1050.788397144662	967.088042740581	309.641410346750	1143.127900897139	789.692111508819	554.850475926815	1110.506911954383	667.152987962279	630.174424740849	1203.818675616253	632.495442783877	553.708868433778	1228.666503295997	520.312900017640	577.180321486759	1087.782546062350	751.182570651641	339.874773897084	992.938631649310	640.073470088147	277.067118132643	1069.645569860634	557.956746945779	343.458311973986	1064.977965905115	490.412698132324	353.809058788838	1040.667825514903	420.178034988062	344.647042851887	952.506363751106	304.464267790543	296.300681176127	1006.125841281163	194.869506794850	367.774964044454	1155.943596579320	441.309978018736	583.190270441264	1036.472917441323	397.291252876735	643.947344470956	1026.076770744832	288.227703593150	594.699658820114	828.073727948029	217.557829931726	566.381850124641	999.592624906250	169.267856136992	609.036968780621	889.407848382969	161.883904635679	640.740345033094	1068.793712730109	59.677982923144	635.875171092056	879.718126481486	38.142925218112	414.151384884323	950.325855136480	35.868833157763	330.280711763184	1034.651451597195	96.915479135519	354.796603110899	1161.619160642003	45.872126235103	320.411420299058	1042.793740062426	1092.587388850842	147.995225019807	1174.333796826060	868.029492509276	164.530372100949	968.369352345151	1095.041617245635	726.219176643419	1109.236922658334	880.391488872372	716.735899158108	
5	6.495428571429	828.074234994893	1011.786766479303	455.620044873761	1025.028939040448	1439.345035978652	282.168398397453	1113.859493194406	1371.220466625942	451.367912661638	1016.993042132716	1443.623387199048	619.126233619699	998.594555352510	1500.591968130681	438.503126426955	1049.980642978765	951.519432781668	583.363544279053	1050.147560331952	967.137366596851	309.775417592113	1143.477170352788	793.056533666168	555.122018882758	1113.128785369977	670.138062979751	630.913872873615	1206.642009825109	636.734421093246	554.188404523964	1234.175567549169	526.069361056521	578.128890674624	1084.861887046155	750.158574769565	340.844739188815	989.175873651133	639.907853310659	276.859230105239	1064.161019352418	556.931200220982	343.880232771666	1058.511571545210	489.526040156426	354.270837806781	1033.966029874786	419.481410528584	344.905911898621	945.259781133485	304.337774017763	296.266395353962	997.787151067432	194.482032478928	368.038519317046	1165.010319926519	444.603414525716	584.677466520376	1048.493524633426	394.418078850600	646.217589648644	1043.567341347432	284.710139577056	597.203762961256	849.399460465838	204.252369134535	569.921890273624	1023.363252209635	164.101736307252	612.463831171796	913.541762912624	151.456565116439	644.232319847832	1097.540423064173	57.412674860097	638.852519507750	870.422093506291	38.053607097253	414.157499225965	941.070848065471	35.816059521359	330.294569773795	1025.387918711578	96.876319807933	354.923164526744	1152.366175639166	45.937744127299	320.460730090754	1052.278932559789	1095.376260279598	145.274493883369	1195.159453794867	877.568882868883	163.177428990405	960.456190423838	1093.901659171875	725.116985348116	1082.806583625488	866.899635461477	722.314142980874	
6	6.506785714286	826.681212275053	1011.372841685451	454.547971769138	1025.913193735150	1439.813764748016	283.181722904025	1113.159657270407	1370.822145901429	452.845072975574	1015.067322041467	1442.612354868052	620.124995215572	998.297338265837	1500.433079154895	439.635813665669	1048.145685039615	951.952173617642	583.726481319538	1049.568313597540	967.074802940863	309.952024687347	1143.491657944293	795.850185188689	555.500977999033	1115.045184928771	672.664290304736	631.754988936411	1208.671253883320	640.256672175563	554.827477140752	1238.683142741555	531.330546134325	579.291978640819	1082.016621939026	749.079874740496	341.783322102939	985.488797354912	639.710059738308	276.665280536914	1058.723759643452	555.876196370140	344.293549681807	1052.123069892686	488.633427570508	354.694619759233	1027.334837115850	418.773952895915	345.138325066455	938.085729108666	304.193983741470	296.208810789774	989.499122356709	194.084115468424	368.297844442328	1173.333470116186	447.583579107439	586.330157405700	1060.248984692217	391.141465377457	648.632780409584	1061.139587345819	281.110846097258	599.839762147578	871.575400954218	190.686806963934	573.484033592836	1047.624620808426	158.960336850679	615.860640568825	938.466047776728	140.887762477989	647.676615809746	1126.844431044261	55.614577038372	641.763692719447	861.234011973315	37.967647622174	414.157333796812	931.911467288089	35.764429080263	330.304632228706	1016.215014728642	96.839026681108	355.052302870972	1143.206201138727	46.010819235453	320.511123829912	1061.202697166453	1098.247162666934	142.786095856277	1215.141381514834	887.784787138332	162.247904446314	952.707232550761	1092.879513822485	724.116358256783	1056.490265352307	855.494065669437	727.671917623566	
